<!DOCTYPE svg PUBLIC "-//W3C//DTD SVG 1.1//EN" "http://www.w3.org/Graphics/SVG/1.1/DTD/svg11.dtd">

<!-- Uploaded to: SVG Repo, www.svgrepo.com, Transformed by: SVG Repo Mixer Tools -->
<svg height="auto" width="auto" version="1.1" id="Layer_1" xmlns="http://www.w3.org/2000/svg" xmlns:xlink="http://www.w3.org/1999/xlink" viewBox="0 0 512 512" xml:space="preserve" fill="#000000">

<g id="SVGRepo_bgCarrier" stroke-width="0"/>

<g id="SVGRepo_tracerCarrier" stroke-linecap="round" stroke-linejoin="round"/>

<g id="SVGRepo_iconCarrier"> <circle style="fill:#FDDF7F;" cx="256" cy="256" r="245.801"/> <g> <circle style="fill:#FFA858;" cx="149.928" cy="159.108" r="35.697"/> <circle style="fill:#FFA858;" cx="272.829" cy="397.259" r="45.386"/> <circle style="fill:#FFA858;" cx="384.51" cy="142.789" r="37.737"/> <circle style="fill:#FFA858;" cx="96.892" cy="244.781" r="22.438"/> </g> <g> <path style="fill:#00537B;" d="M256,512c-68.38,0-132.667-26.628-181.02-74.98S0,324.38,0,256S26.628,123.333,74.98,74.98 S187.62,0,256,0c68.381,0,132.667,26.628,181.019,74.98C485.372,123.333,512,187.62,512,256s-26.628,132.667-74.981,181.02 C388.667,485.372,324.381,512,256,512z M256,20.398C126.089,20.398,20.398,126.089,20.398,256S126.089,491.602,256,491.602 S491.602,385.911,491.602,256S385.911,20.398,256,20.398z"/> <path style="fill:#00537B;" d="M149.928,205.004c-25.307,0-45.896-20.589-45.896-45.896s20.589-45.896,45.896-45.896 s45.896,20.589,45.896,45.896S175.236,205.004,149.928,205.004z M149.928,133.61c-14.06,0-25.498,11.438-25.498,25.498 s11.438,25.498,25.498,25.498c14.06,0,25.498-11.438,25.498-25.498S163.988,133.61,149.928,133.61z"/> <path style="fill:#00537B;" d="M272.829,452.845c-30.65,0-55.586-24.936-55.586-55.586s24.936-55.586,55.586-55.586 c30.651,0,55.586,24.936,55.586,55.586S303.479,452.845,272.829,452.845z M272.829,362.072c-19.402,0-35.187,15.785-35.187,35.187 s15.785,35.187,35.187,35.187s35.187-15.785,35.187-35.187S292.231,362.072,272.829,362.072z"/> <path style="fill:#00537B;" d="M384.51,190.725c-26.432,0-47.936-21.504-47.936-47.936s21.504-47.936,47.936-47.936 c26.432,0,47.936,21.504,47.936,47.936S410.942,190.725,384.51,190.725z M384.51,115.251c-15.185,0-27.538,12.353-27.538,27.538 s12.353,27.538,27.538,27.538s27.538-12.353,27.538-27.538S399.695,115.251,384.51,115.251z"/> <path style="fill:#00537B;" d="M96.892,277.418c-17.996,0-32.637-14.641-32.637-32.637s14.641-32.637,32.637-32.637 s32.637,14.641,32.637,32.637S114.889,277.418,96.892,277.418z M96.892,232.542c-6.749,0-12.239,5.49-12.239,12.239 s5.49,12.239,12.239,12.239s12.239-5.49,12.239-12.239S103.641,232.542,96.892,232.542z"/> <path style="fill:#00537B;" d="M405.664,415.108c-2.602,0-5.204-0.989-7.194-2.969c-3.993-3.974-4.009-10.431-0.036-14.424 c25.94-26.069,44.206-58.624,52.828-94.145c1.329-5.474,6.842-8.835,12.317-7.506c5.474,1.329,8.835,6.843,7.506,12.318 c-9.5,39.142-29.623,75.008-58.191,103.72C410.901,414.105,408.283,415.108,405.664,415.108z"/> <path style="fill:#00537B;" d="M466.84,277.418c-0.181,0-0.36-0.005-0.542-0.014c-5.625-0.295-9.946-5.092-9.652-10.717 c0.185-3.54,0.278-7.135,0.278-10.687c0-5.633,4.567-10.199,10.199-10.199c5.632,0,10.199,4.566,10.199,10.199 c0,3.905-0.104,7.858-0.307,11.751C476.731,273.195,472.227,277.418,466.84,277.418z"/> </g> </g>

</svg>